<?xml version="1.0" encoding="UTF-8"?>
<svg width="473px" height="130px" viewBox="0 0 473 130" version="1.1" xmlns="http://www.w3.org/2000/svg" xmlns:xlink="http://www.w3.org/1999/xlink">
    <!-- Generator: Sketch 51.1 (57501) - http://www.bohemiancoding.com/sketch -->
    <title>all_games</title>
    <desc>Created with Sketch.</desc>
    <defs>
        <polygon id="path-1" points="0 130.1 472.7 130.1 472.7 0 0 0"></polygon>
    </defs>
    <g stroke="none" stroke-width="1" fill="none" fill-rule="evenodd">
        <g>
            <path d="M173.0002,4.1001 C165.6002,4.1001 159.6002,10.1001 159.6002,17.5001 C159.6002,24.9001 165.6002,30.9001 173.0002,30.9001 L279.8992,30.9001 C287.3002,30.9001 293.3002,24.9001 293.3002,17.5001 C293.3002,10.1001 287.3002,4.1001 279.8992,4.1001 L173.0002,4.1001 Z M279.8002,35.0001 L173.0002,35.0001 C163.4002,35.0001 155.5002,27.2001 155.5002,17.5001 C155.5002,7.8001 163.3002,0.0001 173.0002,0.0001 L279.8992,0.0001 C289.5002,0.0001 297.3992,7.8001 297.3992,17.5001 C297.3002,27.1001 289.5002,35.0001 279.8002,35.0001 Z" fill="#FA0F0C"></path>
            <path d="M283.8996,11.8999 L284.5996,11.8999 C284.7006,11.8999 284.7996,11.8999 284.8996,11.7999 C285.0006,11.6999 285.0006,11.5999 285.0006,11.4999 C285.0006,11.2999 284.8996,11.0999 284.5996,11.0999 L283.8996,11.0999 L283.8996,11.8999 Z M284.8996,13.0999 L284.5006,12.2999 L284.0006,12.2999 L284.0006,12.9999 L283.5996,12.9999 L283.5996,10.6999 L284.5996,10.6999 C285.0996,10.6999 285.2996,11.0999 285.2996,11.4999 C285.2996,11.7999 285.0996,12.0999 284.8996,12.1999 L285.2996,12.7999 L284.8996,13.0999 Z M284.5006,9.7999 C283.2996,9.7999 282.3996,10.7999 282.3996,11.9999 C282.3996,13.1999 283.2996,14.0999 284.5006,14.0999 C285.5996,14.0999 286.5996,13.0999 286.5996,11.9999 C286.5996,10.7999 285.5996,9.7999 284.5006,9.7999 Z M284.5006,14.4999 C283.0996,14.4999 282.0006,13.3999 282.0006,11.9999 C282.0006,10.4999 283.0996,9.3999 284.5006,9.3999 C285.8996,9.3999 287.0006,10.5999 287.0006,11.9999 C287.0006,13.2999 285.7996,14.4999 284.5006,14.4999 Z" fill="#FA0F0C"></path>
            <path d="M176.5998,10.7002 L176.5998,15.7002 L179.4998,15.7002 C180.4998,15.7002 181.0998,15.5002 181.5998,15.0002 C181.8998,14.6002 182.0998,14.0002 182.0998,13.1002 C182.0998,11.5002 181.2998,10.7002 179.5998,10.7002 L176.5998,10.7002 Z M181.3998,8.4002 C185.1998,8.4002 187.0998,9.9002 187.0998,12.9002 C187.0998,15.1002 185.8998,16.5002 183.4998,17.2002 C185.9998,17.8002 187.1998,19.7002 187.1998,22.7002 L187.1998,24.7002 L182.0998,24.7002 L182.0998,22.2002 C182.0998,19.4002 181.1998,18.0002 179.2998,18.0002 L176.5998,18.0002 L176.5998,24.7002 L171.4998,24.7002 L171.4998,8.4002 L181.3998,8.4002 Z" fill="#FA0F0C"></path>
            <path d="M198.3,17.7002 L198.3,16.5002 C198.3,16.1002 198.2,15.8002 198,15.6002 C197.8,15.3002 197.6,15.0002 197.2,14.8002 C196.9,14.6002 196.6,14.6002 196.3,14.6002 C196,14.6002 195.6,14.7002 195.3,14.8002 C195,15.0002 194.7,15.2002 194.5,15.6002 C194.3,16.0002 194.2,16.7002 194.2,17.7002 L198.3,17.7002 Z M203.2,20.9002 C202.8,22.2002 201.9,23.3002 200.6,24.1002 C199.3,25.0002 197.8,25.4002 196.2,25.4002 C195.2,25.4002 194.3,25.2002 193.4,24.9002 C192.5,24.6002 191.8,24.2002 191.1,23.6002 C190.4,23.0002 189.9,22.4002 189.5,21.7002 C189.1,20.9002 188.9,20.2002 188.9,19.3002 C188.9,18.5002 189.1,17.7002 189.5,16.9002 C189.9,16.2002 190.4,15.5002 191.1,15.0002 C191.8,14.4002 192.5,14.0002 193.4,13.7002 C194.3,13.4002 195.2,13.2002 196.2,13.2002 C197.2,13.2002 198.1,13.4002 199,13.7002 C199.9,14.0002 200.6,14.5002 201.3,15.0002 C202,15.6002 202.5,16.2002 202.9,17.0002 C203.3,17.8002 203.5,18.6002 203.5,19.4002 L194.2,19.4002 L194.2,21.6002 C194.2,22.5002 194.5,23.1002 195,23.6002 C195.2,23.8002 195.4,23.9002 195.7,24.0002 C195.9,24.1002 196.1,24.1002 196.3,24.1002 C196.5,24.1002 196.7,24.1002 196.9,24.0002 C197.2,23.9002 197.4,23.8002 197.6,23.6002 C198.1,23.2002 198.3,22.5002 198.3,21.6002 L198.3,21.0002 L203.2,20.9002 Z" fill="#FA0F0C"></path>
            <polygon fill="#FA0F0C" points="212.0002 12.2998 214.7002 12.2998 214.7002 13.8998 212.0002 13.8998 212.0002 24.6998 207.1002 24.6998 207.1002 13.8998 204.4002 13.8998 204.4002 12.2998 207.1002 12.2998 207.1002 10.0998 212.0002 10.0998"></polygon>
            <path d="M225.4001,16.2002 C223.8001,16.2002 222.8001,16.5002 222.2001,17.1002 C221.6001,17.7002 221.3001,18.4002 221.3001,19.4002 L221.3001,24.8002 L216.4001,24.8002 L216.4001,13.9002 L221.3001,13.9002 L221.3001,15.5002 C222.3001,14.1002 223.7001,13.4002 225.3001,13.4002 L225.3001,16.2002 L225.4001,16.2002 Z" fill="#FA0F0C"></path>
            <path d="M235.5998,16.8999 C235.5998,16.0999 235.3998,15.4999 234.9998,14.9999 C234.5998,14.5999 234.1998,14.3999 233.5998,14.3999 C233.0998,14.3999 232.5998,14.5999 232.1998,14.9999 C231.7998,15.3999 231.5998,16.0999 231.5998,16.8999 L231.5998,21.4999 C231.5998,22.2999 231.7998,22.8999 232.1998,23.3999 C232.5998,23.7999 232.9998,23.9999 233.5998,23.9999 C234.1998,23.9999 234.5998,23.7999 234.9998,23.3999 C235.3998,22.9999 235.5998,22.2999 235.5998,21.4999 L235.5998,16.8999 Z M233.5998,13.0999 C234.5998,13.0999 235.4998,13.2999 236.3998,13.5999 C237.2998,13.8999 237.9998,14.2999 238.7008,14.8999 C239.3998,15.4999 239.8998,16.0999 240.2998,16.7999 C240.7008,17.5999 240.8998,18.2999 240.8998,19.1999 C240.8998,19.9999 240.7008,20.7999 240.2998,21.5999 C239.8998,22.2999 239.3998,22.9999 238.7008,23.4999 C237.9998,24.0999 237.2998,24.4999 236.3998,24.7999 C235.4998,25.0999 234.5998,25.2999 233.5998,25.2999 C232.5998,25.2999 231.6998,25.0999 230.7998,24.7999 C229.8998,24.4999 229.1998,24.0999 228.4998,23.4999 C227.7998,22.8999 227.2998,22.2999 226.9998,21.5999 C226.5998,20.7999 226.3998,20.0999 226.3998,19.1999 C226.3998,18.3999 226.5998,17.5999 226.9998,16.7999 C227.3998,16.0999 227.8998,15.3999 228.4998,14.8999 C229.1998,14.2999 229.8998,13.8999 230.7998,13.5999 C231.6998,13.2999 232.5998,13.0999 233.5998,13.0999 Z" fill="#FA0F0C"></path>
            <path d="M247.5002,21.2002 C247.5002,22.0002 247.7002,22.5002 248.2002,22.9002 C248.5002,23.2002 249.0002,23.3002 249.5002,23.3002 C250.0002,23.3002 250.3992,23.2002 250.8002,22.9002 C251.2002,22.5002 251.5002,22.0002 251.5002,21.2002 L251.5002,17.3002 C251.5002,16.5002 251.3002,16.0002 250.8002,15.6002 C250.5002,15.3002 250.0002,15.2002 249.5002,15.2002 C249.0002,15.2002 248.6002,15.3002 248.2002,15.6002 C247.7002,16.0002 247.5002,16.5002 247.5002,17.3002 L247.5002,21.2002 Z M247.5002,14.7002 C248.3002,13.9002 249.3002,13.5002 250.3992,13.5002 C251.3002,13.5002 252.0002,13.6002 252.8002,13.9002 C253.5002,14.2002 254.2002,14.6002 254.8002,15.2002 C255.3992,15.7002 255.8002,16.4002 256.1002,17.1002 C256.3992,17.8002 256.6002,18.5002 256.6002,19.3002 C256.6002,20.9002 256.1002,22.2002 255.1002,23.3002 C254.8002,23.7002 254.3992,24.0002 254.0002,24.2002 C253.0002,24.8002 251.8992,25.1002 250.5002,25.1002 C249.5002,25.1002 248.5002,24.7002 247.6002,24.0002 L247.6002,28.2002 L242.7002,28.2002 L242.7002,13.9002 L247.5002,13.9002 L247.5002,14.7002 Z" fill="#FA0F0C"></path>
            <mask id="mask-2" fill="white">
                <use xlink:href="#path-1"></use>
            </mask>
            <g></g>
            <path d="M258.501,24.8 L263.4,24.8 L263.4,13.9 L258.501,13.9 L258.501,24.8 Z M258.5,11.7 L263.399,11.7 L263.399,8.4 L258.5,8.4 L258.5,11.7 Z" fill="#FA0F0C" mask="url(#mask-2)"></path>
            <path d="M274.7004,17.7002 L274.7004,16.5002 C274.7004,16.1002 274.5994,15.8002 274.3994,15.6002 C274.2004,15.3002 274.0004,15.0002 273.5994,14.8002 C273.3004,14.6002 273.0004,14.6002 272.7004,14.6002 C272.3994,14.6002 272.0004,14.7002 271.7004,14.8002 C271.3994,15.0002 271.0994,15.2002 270.8994,15.6002 C270.7004,16.0002 270.5994,16.7002 270.5994,17.7002 L274.7004,17.7002 Z M279.5994,20.9002 C279.2004,22.2002 278.3004,23.3002 277.0004,24.1002 C275.7004,25.0002 274.2004,25.4002 272.5994,25.4002 C271.5994,25.4002 270.7004,25.2002 269.8004,24.9002 C268.8994,24.6002 268.2004,24.2002 267.5004,23.6002 C266.8004,23.0002 266.3004,22.4002 265.8994,21.7002 C265.5004,20.9002 265.3004,20.2002 265.3004,19.3002 C265.3004,18.5002 265.5004,17.7002 265.8994,16.9002 C266.3004,16.2002 266.8004,15.5002 267.5004,15.0002 C268.2004,14.4002 268.8994,14.0002 269.8004,13.7002 C270.7004,13.4002 271.5994,13.2002 272.5994,13.2002 C273.5994,13.2002 274.5004,13.4002 275.3994,13.7002 C276.3004,14.0002 277.0004,14.5002 277.7004,15.0002 C278.3994,15.6002 278.8994,16.2002 279.3004,17.0002 C279.7004,17.8002 279.8994,18.6002 279.8994,19.4002 L270.5994,19.4002 L270.5994,21.6002 C270.5994,22.5002 270.8994,23.1002 271.3994,23.6002 C271.5994,23.8002 271.8004,23.9002 272.0994,24.0002 C272.3004,24.1002 272.5004,24.1002 272.7004,24.1002 C272.8994,24.1002 273.0994,24.1002 273.3004,24.0002 C273.5994,23.9002 273.8004,23.8002 274.0004,23.6002 C274.5004,23.2002 274.7004,22.5002 274.7004,21.6002 L274.7004,21.0002 L279.5994,20.9002 Z" fill="#FA0F0C" mask="url(#mask-2)"></path>
            <path d="M19.8,97.4 L25.4,97.4 L25.4,79 L19.8,79 L19.8,97.4 Z M0,68.7 L3.2,68.7 L3.2,62.3 L6.3,62.3 L6.3,56 L9.5,56 L9.5,52.8 L35.8,52.8 L35.8,56 L39,56 L39,62.4 L42.2,62.4 L42.2,68.8 L45.3,68.8 L45.3,130 L25.5,130 L25.5,114.1 L19.9,114.1 L19.9,130 L0,130 L0,68.7 Z" fill="#333333" mask="url(#mask-2)"></path>
            <polygon fill="#333333" mask="url(#mask-2)" points="50.9001 52.7998 70.8001 52.7998 70.8001 103.7998 96.3001 103.7998 96.3001 129.9998 50.9001 129.9998"></polygon>
            <polygon fill="#333333" mask="url(#mask-2)" points="101.9001 52.7998 121.8001 52.7998 121.8001 103.7998 147.3001 103.7998 147.3001 129.9998 101.9001 129.9998"></polygon>
            <polygon fill="#333333" mask="url(#mask-2)" points="172.0002 68.7002 175.2002 68.7002 175.2002 62.3002 178.4002 62.3002 178.4002 56.0002 181.6002 56.0002 181.6002 52.8002 217.4002 52.8002 217.4002 79.0002 191.9002 79.0002 191.9002 103.7002 197.5002 103.7002 197.5002 91.0002 217.4002 91.0002 217.4002 130.0002 181.6002 130.0002 181.6002 126.8002 178.4002 126.8002 178.4002 120.4002 175.2002 120.4002 175.2002 114.0002 172.0002 114.0002"></polygon>
            <path d="M242.8,97.4 L248.4,97.4 L248.4,79 L242.8,79 L242.8,97.4 Z M223,68.7 L226.2,68.7 L226.2,62.3 L229.4,62.3 L229.4,56 L232.6,56 L232.6,52.8 L258.9,52.8 L258.9,56 L262.1,56 L262.1,62.4 L265.3,62.4 L265.3,68.8 L268.5,68.8 L268.5,130 L248.6,130 L248.6,114.1 L243,114.1 L243,130 L223.1,130 L223.1,68.7 L223,68.7 Z" fill="#333333" mask="url(#mask-2)"></path>
            <polygon fill="#333333" mask="url(#mask-2)" points="273.8996 68.7002 277.0996 68.7002 277.0996 62.3002 280.2996 62.3002 280.2996 56.0002 283.5006 56.0002 283.5006 52.8002 306.5996 52.8002 306.5996 56.0002 309.7996 56.0002 309.7996 59.2002 312.2006 59.2002 312.2006 56.0002 315.3996 56.0002 315.3996 52.8002 335.2996 52.8002 335.2996 56.0002 338.5006 56.0002 338.5006 62.4002 341.7006 62.4002 341.7006 68.8002 344.8996 68.8002 344.8996 130.0002 325.0006 130.0002 325.0006 79.0002 319.2996 79.0002 319.2996 130.0002 299.3996 130.0002 299.3996 79.0002 293.7996 79.0002 293.7996 130.0002 273.8996 130.0002"></polygon>
            <path d="M372.7,101.299 L392.599,101.299 L392.599,81.4 L372.7,81.4 L372.7,101.299 Z M350.4,68.7 L353.6,68.7 L353.6,62.3 L356.8,62.3 L356.8,56 L360,56 L360,52.8 L395.8,52.8 L395.8,79 L370.3,79 L370.3,103.7 L395.8,103.7 L395.8,130 L360,130 L360,126.8 L356.8,126.8 L356.8,120.4 L353.6,120.4 L353.6,114 L350.4,114 L350.4,68.7 Z" fill="#333333" mask="url(#mask-2)"></path>
            <polygon fill="#333333" mask="url(#mask-2)" points="401.3996 68.7002 404.5996 68.7002 404.5996 62.3002 407.7996 62.3002 407.7996 56.0002 411.0006 56.0002 411.0006 52.8002 437.2996 52.8002 437.2996 56.0002 440.5006 56.0002 440.5006 62.4002 443.7006 62.4002 443.7006 68.8002 446.8996 68.8002 446.8996 79.0002 424.5996 79.0002 424.5996 81.4002 427.7996 81.4002 427.7996 84.5992 434.2006 84.5992 434.2006 87.8002 440.5996 87.8002 440.5996 91.0002 443.7996 91.0002 443.7996 97.4002 447.0006 97.4002 447.0006 114.0992 443.7996 114.0992 443.7996 120.5002 440.5996 120.5002 440.5996 126.9002 437.3996 126.9002 437.3996 130.0992 411.0996 130.0992 411.0996 126.9002 407.8996 126.9002 407.8996 120.5002 404.7006 120.5002 404.7006 114.0992 401.5006 114.0992 401.5006 103.8002 427.0006 103.8002 427.0006 101.4002 420.5996 101.4002 420.5996 98.2002 414.2006 98.2002 414.2006 95.0002 407.7996 95.0002 407.7996 91.8002 404.5996 91.8002 404.5996 85.4002 401.3996 85.4002"></polygon>
            <polygon fill="#333333" mask="url(#mask-2)" points="452.8 130 472.7 130 472.7 103.7 452.8 103.7"></polygon>
        </g>
    </g>
</svg>