<?xml version="1.0" encoding="UTF-8"?>
<svg width="293px" height="130px" viewBox="0 0 293 130" version="1.1" xmlns="http://www.w3.org/2000/svg" xmlns:xlink="http://www.w3.org/1999/xlink">
    <!-- Generator: Sketch 51.1 (57501) - http://www.bohemiancoding.com/sketch -->
    <title>favorites</title>
    <desc>Created with Sketch.</desc>
    <defs>
        <polygon id="path-1" points="-0.0002 0 126.700879 0 126.700879 31.1998 -0.0002 31.1998"></polygon>
    </defs>
    <g stroke="none" stroke-width="1" fill="none" fill-rule="evenodd">
        <g transform="translate(33.000000, 10.000000)">
            <g transform="translate(50.000000, 0.000000)">
                <mask id="mask-2" fill="white">
                    <use xlink:href="#path-1"></use>
                </mask>
                <g></g>
                <path d="M15.6998,3.6998 C9.0998,3.6998 3.7998,9.0998 3.7998,15.5998 C3.7998,22.1998 9.1998,27.4998 15.6998,27.4998 L111.1998,27.4998 C117.8008,27.4998 123.0998,22.0998 123.0998,15.5998 C123.0998,8.9998 117.6998,3.6998 111.1998,3.6998 L15.6998,3.6998 Z M111.0998,31.1998 L15.5998,31.1998 C6.9998,31.1998 -0.0002,24.1998 -0.0002,15.5998 C-0.0002,6.9998 6.9998,-0.0002 15.5998,-0.0002 L111.0998,-0.0002 C119.6998,-0.0002 126.6998,6.9998 126.6998,15.5998 C126.8008,24.1998 119.8008,31.1998 111.0998,31.1998 Z" fill="#FA0F0C" mask="url(#mask-2)"></path>
            </g>
            <path d="M164.8004,10.6002 L165.4004,10.6002 C165.4994,10.6002 165.6004,10.6002 165.6004,10.5002 C165.6994,10.4002 165.6994,10.3002 165.6994,10.2002 C165.6994,10.1002 165.6004,9.8002 165.4004,9.8002 L164.8004,9.8002 L164.8004,10.6002 Z M165.6994,11.7002 L165.3004,11.0002 L164.8004,11.0002 L164.8004,11.6002 L164.4004,11.6002 L164.4004,9.6002 L165.3004,9.6002 C165.6994,9.6002 165.9994,10.0002 165.9994,10.3002 C165.9994,10.6002 165.9004,10.8002 165.6004,11.0002 L165.9004,11.6002 L165.6994,11.7002 Z M165.3004,8.7002 C164.1994,8.7002 163.4004,9.6002 163.4004,10.7002 C163.4004,11.7002 164.1994,12.6002 165.3004,12.6002 C166.3004,12.6002 167.1994,11.7002 167.1994,10.7002 C167.1994,9.6002 166.3004,8.7002 165.3004,8.7002 Z M165.3004,12.9002 C164.1004,12.9002 163.1004,11.9002 163.1004,10.7002 C163.1004,9.4002 164.1004,8.4002 165.3004,8.4002 C166.4994,8.4002 167.4994,9.5002 167.4994,10.7002 C167.4994,11.9002 166.4994,12.9002 165.3004,12.9002 Z" fill="#FA0F0C"></path>
            <path d="M68.9,9.6002 L68.9,14.1002 L71.5,14.1002 C72.4,14.1002 73,13.9002 73.3,13.4002 C73.6,13.0002 73.7,12.5002 73.7,11.7002 C73.7,10.3002 72.9,9.6002 71.4,9.6002 L68.9,9.6002 Z M73.2,7.5002 C76.6,7.5002 78.3,8.8002 78.3,11.5002 C78.3,13.4002 77.2,14.7002 75.1,15.4002 C77.3,16.0002 78.4,17.6002 78.4,20.3002 L78.4,22.1002 L73.9,22.1002 L73.9,19.8002 C73.9,17.3002 73.1,16.0002 71.4,16.0002 L69,16.0002 L69,22.0002 L64.4,22.0002 L64.4,7.5002 L73.2,7.5002 Z" fill="#FA0F0C"></path>
            <path d="M88.2999,15.7999 L88.2999,14.6999 C88.2999,14.3999 88.1999,14.0999 87.9999,13.8999 C87.7999,13.5999 87.5999,13.3999 87.2999,13.1999 C86.9999,13.0999 86.7999,12.9999 86.4999,12.9999 C86.1999,12.9999 85.8999,13.0999 85.5999,13.1999 C85.2999,13.3999 85.0999,13.5999 84.8999,13.8999 C84.6999,14.2999 84.5999,14.8999 84.5999,15.7999 L88.2999,15.7999 Z M92.5999,18.6999 C92.1999,19.8999 91.3999,20.7999 90.2999,21.5999 C89.0999,22.3999 87.7999,22.6999 86.3999,22.6999 C85.4999,22.6999 84.6999,22.5999 83.8999,22.2999 C83.0999,21.9999 82.4999,21.5999 81.8999,21.0999 C81.2999,20.5999 80.7999,19.9999 80.4999,19.3999 C80.1999,18.6999 79.9999,17.9999 79.9999,17.2999 C79.9999,16.5999 80.1999,15.7999 80.4999,15.1999 C80.7999,14.4999 81.2999,13.9999 81.8999,13.4999 C82.4999,12.9999 83.1999,12.5999 83.8999,12.2999 C84.6999,11.9999 85.4999,11.8999 86.3999,11.8999 C87.2999,11.8999 88.0999,11.9999 88.8999,12.2999 C89.6999,12.5999 90.3999,12.9999 90.9999,13.4999 C91.5999,13.9999 92.0999,14.5999 92.3999,15.2999 C92.6999,15.9999 92.8999,16.6999 92.8999,17.3999 L84.5999,17.3999 L84.5999,19.3999 C84.5999,20.1999 84.7999,20.7999 85.2999,21.1999 C85.4999,21.2999 85.6999,21.4999 85.8999,21.4999 C86.0999,21.5999 86.2999,21.5999 86.4999,21.5999 C86.6999,21.5999 86.8999,21.5999 87.0999,21.4999 C87.2999,21.3999 87.4999,21.2999 87.6999,21.1999 C88.0999,20.7999 88.3999,20.1999 88.3999,19.3999 L88.3999,18.7999 L92.5999,18.6999 Z" fill="#FA0F0C"></path>
            <polygon fill="#FA0F0C" points="100.5001 10.9 102.9001 10.9 102.9001 12.3 100.5001 12.3 100.5001 22 96.1001 22 96.1001 12.3 93.7001 12.3 93.7001 10.9 96.1001 10.9 96.1001 8.9 100.5001 8.9"></polygon>
            <path d="M112.5001,14.4 C111.1001,14.4 110.2001,14.7 109.6001,15.2 C109.1001,15.7 108.8001,16.4 108.8001,17.2 L108.8001,22.1 L104.5001,22.1 L104.5001,12.4 L108.8001,12.4 L108.8001,13.8 C109.7001,12.6 110.9001,11.9 112.4001,11.9 L112.4001,14.4 L112.5001,14.4 Z" fill="#FA0F0C"></path>
            <path d="M121.6002,15.1002 C121.6002,14.4002 121.4002,13.8002 120.9992,13.4002 C120.7002,13.1002 120.3002,12.9002 119.8002,12.9002 C119.3002,12.9002 118.9002,13.1002 118.6002,13.4002 C118.2002,13.8002 117.9992,14.4002 117.9992,15.1002 L117.9992,19.2002 C117.9992,19.9002 118.2002,20.5002 118.6002,20.9002 C118.9002,21.2002 119.3002,21.4002 119.8002,21.4002 C120.3002,21.4002 120.7002,21.2002 120.9992,20.9002 C121.4002,20.5002 121.6002,20.0002 121.6002,19.2002 L121.6002,15.1002 Z M119.8002,11.7002 C120.7002,11.7002 121.4992,11.8002 122.3002,12.1002 C123.1002,12.4002 123.7002,12.8002 124.3002,13.3002 C124.9002,13.8002 125.4002,14.4002 125.7002,15.0002 C125.9992,15.7002 126.2002,16.4002 126.2002,17.1002 C126.2002,17.8002 125.9992,18.6002 125.7002,19.2002 C125.4002,19.9002 124.9002,20.4002 124.3002,20.9002 C123.7002,21.4002 122.9992,21.8002 122.3002,22.1002 C121.4992,22.4002 120.7002,22.5002 119.8002,22.5002 C118.9002,22.5002 118.1002,22.4002 117.3002,22.1002 C116.4992,21.8002 115.9002,21.4002 115.3002,20.9002 C114.7002,20.4002 114.3002,19.8002 113.9002,19.2002 C113.6002,18.5002 113.4002,17.8002 113.4002,17.1002 C113.4002,16.4002 113.6002,15.7002 113.9002,15.0002 C114.2002,14.3002 114.7002,13.8002 115.3002,13.3002 C115.9002,12.8002 116.6002,12.4002 117.3002,12.1002 C118.1002,11.8002 118.9992,11.7002 119.8002,11.7002 Z" fill="#FA0F0C"></path>
            <path d="M132.3004,18.9 C132.3004,19.6 132.4994,20.1 132.9004,20.4 C133.1994,20.7 133.6004,20.8 133.9994,20.8 C134.4004,20.8 134.8004,20.7 135.1004,20.4 C135.4994,20.1 135.6994,19.6 135.6994,18.9 L135.6994,15.4 C135.6994,14.7 135.4994,14.2 135.1004,13.9 C134.8004,13.7 134.4004,13.5 133.9994,13.5 C133.6004,13.5 133.1994,13.6 132.9004,13.9 C132.4994,14.2 132.3004,14.7 132.3004,15.4 L132.3004,18.9 Z M132.3004,13.1 C132.9994,12.4 133.9004,12 134.9004,12 C135.6994,12 136.4004,12.1 136.9994,12.4 C137.6004,12.6 138.1994,13 138.8004,13.5 C139.3004,14 139.6994,14.5 139.9994,15.2 C140.3004,15.8 140.4004,16.5 140.4004,17.1 C140.4004,18.5 139.9004,19.7 138.9994,20.7 C138.6994,21 138.4004,21.3 137.9994,21.5 C137.1004,22.1 136.1004,22.3 134.9004,22.3 C133.9994,22.3 133.1004,22 132.3004,21.4 L132.3004,25.1 L127.9994,25.1 L127.9994,12.4 L132.3004,12.4 L132.3004,13.1 Z" fill="#FA0F0C"></path>
            <path d="M142.101,22.1 L146.5,22.1 L146.5,12.4 L142.101,12.4 L142.101,22.1 Z M142.1,10.5 L146.499,10.5 L146.499,7.5 L142.1,7.5 L142.1,10.5 Z" fill="#FA0F0C"></path>
            <path d="M156.4996,15.7999 L156.4996,14.6999 C156.4996,14.3999 156.3996,14.0999 156.1996,13.8999 C155.9996,13.5999 155.8006,13.3999 155.4996,13.1999 C155.1996,13.0999 154.9996,12.9999 154.6996,12.9999 C154.3996,12.9999 154.1006,13.0999 153.8006,13.1999 C153.4996,13.3999 153.3006,13.5999 153.1006,13.8999 C152.8996,14.2999 152.8006,14.8999 152.8006,15.7999 L156.4996,15.7999 Z M160.8996,18.6999 C160.4996,19.8999 159.6996,20.7999 158.6006,21.5999 C157.3996,22.3999 156.1006,22.6999 154.6996,22.6999 C153.8006,22.6999 152.9996,22.5999 152.1996,22.2999 C151.3996,21.9999 150.8006,21.5999 150.1996,21.0999 C149.6006,20.5999 149.1006,19.9999 148.8006,19.3999 C148.4996,18.6999 148.3006,17.9999 148.3006,17.2999 C148.3006,16.5999 148.4996,15.7999 148.8006,15.1999 C149.1006,14.4999 149.6006,13.9999 150.1996,13.4999 C150.8006,12.9999 151.4996,12.5999 152.1996,12.2999 C152.9996,11.9999 153.8006,11.8999 154.6996,11.8999 C155.6006,11.8999 156.3996,11.9999 157.1996,12.2999 C157.9996,12.5999 158.6996,12.9999 159.3006,13.4999 C159.8996,13.9999 160.3996,14.5999 160.6996,15.2999 C160.9996,15.9999 161.1996,16.6999 161.1996,17.3999 L152.8996,17.3999 L152.8996,19.3999 C152.8996,20.1999 153.1006,20.7999 153.6006,21.1999 C153.8006,21.2999 153.9996,21.4999 154.1996,21.4999 C154.3996,21.5999 154.6006,21.5999 154.8006,21.5999 C154.9996,21.5999 155.1996,21.5999 155.3996,21.4999 C155.6006,21.3999 155.8006,21.2999 155.9996,21.1999 C156.3996,20.7999 156.6996,20.1999 156.6996,19.3999 L156.6996,18.7999 L160.8996,18.6999 Z" fill="#FA0F0C"></path>
            <g transform="translate(0.000000, 41.000000)" fill="#333333">
                <polygon points="7.77777778e-05 69.2219111 12.5223 0.3108 31.1889667 0.3108 29.8667444 8.08857778 19.5223 8.08857778 15.6334111 29.8663556 25.9778556 29.8663556 24.5000778 37.5671333 14.2334111 37.5671333 8.55563333 69.2219111"></polygon>
                <path d="M39.4331778,50.0888889 L42.4665111,19.6 L31.9665111,50.0888889 L39.4331778,50.0888889 Z M29.2442889,57.8666667 L25.3554,69.2222222 L16.5665111,69.2222222 L42.5442889,0.311111111 L50.7887333,0.311111111 L45.4220667,69.2222222 L37.5665111,69.2222222 L38.6554,57.8666667 L29.2442889,57.8666667 Z"></path>
                <polygon points="61.0556333 49.9331778 78.1667444 0.310955556 86.9556333 0.310955556 60.9778556 69.2220667 52.7334111 69.2220667 58.1000778 0.310955556 65.9556333 0.310955556"></polygon>
                <path d="M85.1667444,59.4222222 C85.1667444,59.9666667 85.3223,60.4333333 85.7111889,60.9 C86.1000778,61.2888889 86.5667444,61.5222222 87.1889667,61.5222222 L91.6223,61.5222222 C93.1778556,61.5222222 94.1889667,60.7444444 94.5778556,59.1111111 L103.366744,10.3444444 L103.366744,10.0333333 C103.366744,9.48888889 103.211189,8.94444444 102.8223,8.55555556 C102.433411,8.16666667 101.966744,8.01111111 101.344522,8.01111111 L96.9111889,8.01111111 C96.2111889,8.01111111 95.5889667,8.24444444 95.0445222,8.71111111 C94.5000778,9.1 94.1889667,9.64444444 94.0334111,10.2666667 L85.2445222,59.1111111 L85.2445222,59.4222222 L85.1667444,59.4222222 Z M105.777856,0.311111111 C107.411189,0.311111111 108.888967,0.933333333 110.055633,2.1 C111.300078,3.34444444 111.844522,4.82222222 111.844522,6.53333333 C111.844522,7 111.844522,7.38888889 111.766744,7.62222222 L101.888967,63 C101.500078,64.7888889 100.644522,66.2666667 99.1667444,67.4333333 C97.6889667,68.6 96.0556333,69.2222222 94.2667444,69.2222222 L82.7556333,69.2222222 C81.0445222,69.2222222 79.6445222,68.6 78.4000778,67.4333333 C77.2334111,66.1888889 76.6111889,64.7888889 76.6111889,63.0777778 L76.6111889,61.9111111 L86.4889667,6.61111111 C86.8778556,4.82222222 87.7334111,3.34444444 89.1334111,2.17777778 C90.6111889,1.01111111 92.1667444,0.388888889 93.9556333,0.388888889 L105.777856,0.388888889 L105.777856,0.311111111 Z"></path>
                <path d="M128.800156,30.5669778 C129.499378,30.5669778 130.122378,30.3328667 130.666044,29.8669778 C131.211267,29.4003111 131.522378,28.8558667 131.600156,28.1550889 L134.866822,10.3447556 L134.866822,10.0336444 C134.866822,9.48842222 134.711267,8.94475556 134.322378,8.55586667 C133.933489,8.16697778 133.388267,8.01142222 132.8446,8.01142222 L126.233489,8.01142222 L122.110489,30.4884222 L128.800156,30.4884222 L128.800156,30.5669778 Z M129.3446,40.7558667 C129.3446,40.2106444 129.189044,39.7447556 128.800156,39.3558667 C128.411267,38.9669778 127.943822,38.8114222 127.400156,38.8114222 L120.711267,38.8114222 L115.3446,69.2217556 L106.866822,69.2217556 L119.233489,0.311422222 L137.7446,0.311422222 C139.377933,0.311422222 140.855711,0.932866667 142.100156,2.09953333 C143.3446,3.2662 143.966822,4.74475556 144.0446,6.45586667 C144.0446,6.61142222 143.966822,7.00031111 143.888267,7.62253333 L140.077933,29.3217556 C139.455711,32.3558667 137.666044,34.2217556 134.711267,35.0780889 C135.800156,35.4669778 136.655711,36.2447556 137.277156,37.2558667 C137.7446,38.1106444 137.977933,39.0439778 137.977933,40.0550889 C137.977933,40.2892 137.977933,40.5225333 137.900156,40.7558667 C137.900156,41.2217556 137.900156,41.6106444 137.822378,41.8447556 L132.8446,69.0669778 L124.366822,69.0669778 L129.422378,40.8328667 L129.422378,40.7558667 L129.3446,40.7558667 Z"></path>
                <polygon points="146.377622 69.2219111 138.0554 69.2219111 150.577622 0.3108 158.822067 0.3108"></polygon>
                <polygon points="179.588889 8.08888889 173.833333 8.08888889 162.788889 69.2222222 154.388889 69.2222222 165.511111 8.08888889 159.6 8.08888889 161 0.311111111 181.066667 0.311111111"></polygon>
                <polygon points="183.088889 0.311111111 201.755556 0.311111111 200.433333 8.08888889 190.088889 8.08888889 186.2 29.8666667 196.544444 29.8666667 195.066667 37.5666667 184.8 37.5666667 180.522222 61.5222222 190.711111 61.5222222 189.311111 69.2222222 170.644444 69.2222222"></polygon>
                <path d="M219.099844,41.9222222 C219.956178,43.4777778 220.345067,45.1111111 220.345067,46.9 C220.345067,47.8333333 220.266511,48.6888889 220.033178,49.6222222 L217.544289,62.9222222 C217.1554,64.7111111 216.299844,66.1888889 214.900622,67.3555556 C213.422067,68.5222222 211.789511,69.1444444 209.922067,69.1444444 L198.410956,69.1444444 C196.699844,69.1444444 195.299844,68.5222222 194.133178,67.3555556 C193.044289,66.1888889 192.422067,64.7111111 192.422067,63 L192.422067,61.9111111 L195.456178,44.4111111 L203.466511,44.4111111 L200.900622,59.1888889 L200.900622,59.4222222 C200.900622,59.9666667 201.0554,60.4333333 201.444289,60.9 C201.833178,61.2888889 202.299844,61.5222222 202.845067,61.5222222 L207.277622,61.5222222 C207.977622,61.5222222 208.599844,61.2888889 209.222067,60.8222222 C209.766511,60.3555556 210.1554,59.7333333 210.310956,59.1111111 L212.022067,49.3888889 C212.099844,49.0777778 212.099844,48.7666667 212.099844,48.4555556 C212.099844,47.1333333 211.5554,45.5 210.388733,43.4777778 C209.845067,42.5444444 208.522067,39.9777778 206.266511,35.7777778 C203.777622,31.0333333 202.299844,28.3111111 201.910956,27.6111111 C200.666511,25.2 200.122844,22.8666667 200.122844,20.5333333 C200.122844,19.8333333 200.199844,19.1333333 200.277622,18.4333333 L202.377622,6.53333333 C202.766511,4.74444444 203.622844,3.26666667 205.099844,2.1 C206.499844,0.933333333 208.133178,0.311111111 209.922067,0.311111111 L221.433178,0.311111111 C223.067289,0.311111111 224.544289,0.933333333 225.789511,2.1 C227.033178,3.34444444 227.6554,4.82222222 227.6554,6.53333333 C227.6554,7 227.6554,7.38888889 227.577622,7.62222222 L224.544289,24.5777778 L216.533178,24.5777778 L219.099844,10.2666667 C219.1784,10.1888889 219.1784,10.1111111 219.1784,9.95555556 C219.1784,9.41111111 218.944289,8.94444444 218.5554,8.47777778 C218.166511,8.08888889 217.622844,7.93333333 217.077622,7.93333333 L212.644289,7.93333333 C211.944289,7.93333333 211.322067,8.16666667 210.777622,8.63333333 C210.233956,9.02222222 209.922067,9.56666667 209.766511,10.1888889 L208.366511,17.8111111 C208.289511,18.3555556 208.210956,18.9777778 208.210956,19.6 C208.210956,21.9333333 208.910956,24.2666667 210.388733,26.6 C215.7554,35.8555556 218.633178,40.9111111 219.099844,41.9222222"></path>
            </g>
        </g>
    </g>
</svg>