<?xml version="1.0" encoding="UTF-8"?>
<svg width="453px" height="130px" viewBox="0 0 453 130" version="1.1" xmlns="http://www.w3.org/2000/svg" xmlns:xlink="http://www.w3.org/1999/xlink">
    <!-- Generator: Sketch 51.1 (57501) - http://www.bohemiancoding.com/sketch -->
    <title>last_played</title>
    <desc>Created with Sketch.</desc>
    <defs>
        <polygon id="path-1" points="0 130.1 452.2 130.1 452.2 0 0 0"></polygon>
    </defs>
    <g stroke="none" stroke-width="1" fill="none" fill-rule="evenodd">
        <g>
            <path d="M171.8002,4.2002 C164.3002,4.2002 158.2002,10.3002 158.2002,17.8002 C158.2002,25.3002 164.3002,31.4002 171.8002,31.4002 L280.4002,31.4002 C287.9002,31.4002 294.0002,25.3002 294.0002,17.8002 C294.0002,10.3002 287.9002,4.2002 280.4002,4.2002 L171.8002,4.2002 Z M280.4002,35.6002 L171.8002,35.6002 C162.0002,35.6002 154.0002,27.6002 154.0002,17.8002 C154.0002,8.0002 162.0002,0.0002 171.8002,0.0002 L280.4002,0.0002 C290.1992,0.0002 298.1992,8.0002 298.1992,17.8002 C298.1992,27.6002 290.1992,35.6002 280.4002,35.6002 Z" fill="#FA0F0C"></path>
            <path d="M284.5004,12.1001 L285.1994,12.1001 C285.3004,12.1001 285.3994,12.1001 285.5004,12.0001 C285.6004,11.9001 285.6004,11.8001 285.6004,11.7001 C285.6004,11.5001 285.5004,11.3001 285.1994,11.3001 L284.5004,11.3001 L284.5004,12.1001 Z M285.5004,13.3001 L285.1004,12.5001 L284.5004,12.5001 L284.5004,13.2001 L284.1004,13.2001 L284.1004,10.9001 L285.1994,10.9001 C285.6994,10.9001 286.0004,11.3001 286.0004,11.7001 C286.0004,12.0001 285.8004,12.3001 285.6004,12.5001 L286.0004,13.1001 L285.5004,13.3001 Z M285.1004,9.9001 C283.8994,9.9001 283.0004,10.9001 283.0004,12.2001 C283.0004,13.4001 284.0004,14.3001 285.1004,14.3001 C286.1994,14.3001 287.1994,13.3001 287.1994,12.2001 C287.1994,11.0001 286.1994,9.9001 285.1004,9.9001 Z M285.1004,14.7001 C283.6994,14.7001 282.6004,13.6001 282.6004,12.2001 C282.6004,10.7001 283.6994,9.5001 285.1004,9.5001 C286.5004,9.5001 287.6004,10.7001 287.6004,12.2001 C287.6004,13.6001 286.3994,14.7001 285.1004,14.7001 Z" fill="#FA0F0C"></path>
            <path d="M175.4999,10.8999 L175.4999,15.9999 L178.3999,15.9999 C179.3999,15.9999 180.0999,15.7999 180.4999,15.2999 C180.7999,14.8999 180.9999,14.1999 180.9999,13.3999 C180.9999,11.7999 180.0999,10.9999 178.3999,10.9999 L175.4999,10.9999 L175.4999,10.8999 Z M180.3999,8.4999 C184.1999,8.4999 186.0999,9.9999 186.0999,13.0999 C186.0999,15.2999 184.8999,16.6999 182.4999,17.4999 C184.9999,18.0999 186.2999,19.9999 186.2999,23.0999 L186.2999,25.0999 L181.0999,25.0999 L181.0999,22.4999 C181.0999,19.5999 180.1999,18.1999 178.2999,18.1999 L175.4999,18.1999 L175.4999,24.9999 L170.3999,24.9999 L170.3999,8.4999 L180.3999,8.4999 Z" fill="#FA0F0C"></path>
            <path d="M197.4999,18 L197.4999,16.8 C197.4999,16.4 197.3999,16.1 197.1999,15.9 C196.9999,15.6 196.7999,15.3 196.3999,15.1 C196.0999,14.9 195.7999,14.9 195.3999,14.9 C194.9999,14.9 194.6999,15 194.3999,15.1 C194.0999,15.3 193.7999,15.5 193.5999,15.9 C193.3999,16.3 193.2999,17 193.2999,18.1 L197.4999,18.1 L197.4999,18 Z M202.4999,21.3 C202.0999,22.6 201.1999,23.7 199.8999,24.5 C198.5999,25.4 197.0999,25.8 195.3999,25.8 C194.3999,25.8 193.4999,25.6 192.4999,25.3 C191.5999,25 190.8999,24.5 190.1999,24 C189.4999,23.4 188.9999,22.8 188.5999,22 C188.1999,21.2 187.9999,20.4 187.9999,19.6 C187.9999,18.8 188.1999,17.9 188.5999,17.2 C188.9999,16.5 189.4999,15.8 190.1999,15.2 C190.8999,14.6 191.6999,14.2 192.4999,13.9 C193.3999,13.6 194.3999,13.4 195.3999,13.4 C196.3999,13.4 197.3999,13.6 198.2999,13.9 C199.1999,14.2 199.9999,14.7 200.5999,15.2 C201.2999,15.8 201.7999,16.5 202.1999,17.2 C202.5999,18 202.7999,18.8 202.7999,19.6 L193.3999,19.6 L193.3999,21.9 C193.3999,22.8 193.6999,23.5 194.1999,23.9 C194.3999,24.1 194.5999,24.2 194.8999,24.3 C195.0999,24.4 195.2999,24.4 195.4999,24.4 C195.6999,24.4 195.8999,24.4 196.0999,24.3 C196.3999,24.2 196.5999,24.1 196.7999,23.9 C197.2999,23.5 197.4999,22.8 197.4999,21.9 L197.4999,21.3 L202.4999,21.3 Z" fill="#FA0F0C"></path>
            <polygon fill="#FA0F0C" points="211.4999 12.5 214.1999 12.5 214.1999 14.1 211.4999 14.1 211.4999 25.1 206.4999 25.1 206.4999 14.1 203.7999 14.1 203.7999 12.5 206.4999 12.5 206.4999 10.3 211.4999 10.3"></polygon>
            <path d="M225.1,16.3999 C223.5,16.3999 222.4,16.6999 221.9,17.2999 C221.3,17.8999 221,18.6999 221,19.5999 L221,25.0999 L216.1,25.0999 L216.1,14.0999 L221,14.0999 L221,15.6999 C222,14.2999 223.4,13.5999 225.1,13.5999 L225.1,16.3999 Z" fill="#FA0F0C"></path>
            <path d="M235.3998,17.2002 C235.3998,16.4002 235.1998,15.8002 234.7998,15.3002 C234.3998,14.9002 234.0008,14.7002 233.3998,14.7002 C232.7998,14.7002 232.3998,14.9002 232.0008,15.3002 C231.5998,15.8002 231.2998,16.4002 231.2998,17.2002 L231.2998,21.9002 C231.2998,22.7002 231.5008,23.4002 231.8998,23.8002 C232.2998,24.2002 232.6998,24.4002 233.2998,24.4002 C233.8998,24.4002 234.2998,24.2002 234.6998,23.8002 C235.0998,23.4002 235.2998,22.7002 235.2998,21.9002 L235.2998,17.2002 L235.3998,17.2002 Z M233.3998,13.3002 C234.3998,13.3002 235.2998,13.5002 236.1998,13.8002 C237.0998,14.1002 237.7998,14.6002 238.5008,15.1002 C239.1998,15.7002 239.6998,16.3002 240.0998,17.1002 C240.5008,17.9002 240.6998,18.7002 240.6998,19.5002 C240.6998,20.3002 240.5008,21.2002 240.0998,21.9002 C239.6998,22.6002 239.1998,23.3002 238.5008,23.9002 C237.7998,24.5002 237.0998,24.9002 236.1998,25.2002 C235.2998,25.5002 234.2998,25.7002 233.3998,25.7002 C232.3998,25.7002 231.5008,25.5002 230.5998,25.2002 C229.6998,24.9002 229.0008,24.4002 228.2998,23.9002 C227.5998,23.3002 227.0998,22.7002 226.6998,21.9002 C226.2998,21.1002 226.0998,20.3002 226.0998,19.5002 C226.0998,18.7002 226.2998,17.9002 226.6998,17.1002 C227.0998,16.4002 227.5998,15.7002 228.2998,15.1002 C229.0008,14.5002 229.6998,14.1002 230.5998,13.8002 C231.5008,13.5002 232.3998,13.3002 233.3998,13.3002 Z" fill="#FA0F0C"></path>
            <path d="M247.5004,21.5 C247.5004,22.3 247.6994,22.8 248.1994,23.2 C248.5004,23.5 249.0004,23.6 249.5004,23.6 C250.0004,23.6 250.3994,23.5 250.8004,23.2 C251.1994,22.8 251.5004,22.3 251.5004,21.5 L251.5004,17.6 C251.5004,16.8 251.3004,16.3 250.8004,15.9 C250.3994,15.6 250.0004,15.5 249.5004,15.5 C249.0004,15.5 248.6004,15.6 248.1994,15.9 C247.6994,16.3 247.5004,16.8 247.5004,17.6 L247.5004,21.5 Z M247.6004,14.9 C248.3994,14.1 249.3994,13.7 250.5004,13.7 C251.3994,13.7 252.1994,13.8 252.8994,14.1 C253.6004,14.4 254.3004,14.8 254.8994,15.4 C255.5004,16 255.8994,16.6 256.1994,17.3 C256.5004,18 256.6994,18.8 256.6994,19.5 C256.6994,21.1 256.1994,22.5 255.1004,23.6 C254.8004,24 254.3994,24.3 254.0004,24.6 C253.0004,25.2 251.8994,25.5 250.5004,25.5 C249.3994,25.5 248.5004,25.1 247.5004,24.4 L247.5004,28.6 L242.6004,28.6 L242.6004,14.1 L247.5004,14.1 L247.5004,14.9 L247.6004,14.9 Z" fill="#FA0F0C"></path>
            <mask id="mask-2" fill="white">
                <use xlink:href="#path-1"></use>
            </mask>
            <g></g>
            <path d="M258.7,25.1 L263.7,25.1 L263.7,14.1 L258.7,14.1 L258.7,25.1 Z M258.7,11.9 L263.7,11.9 L263.7,8.5 L258.7,8.5 L258.7,11.9 Z" fill="#FA0F0C" mask="url(#mask-2)"></path>
            <path d="M275.1,18 L275.1,16.8 C275.1,16.4 275,16.1 274.8,15.9 C274.6,15.6 274.4,15.3 274,15.1 C273.7,14.9 273.4,14.9 273,14.9 C272.6,14.9 272.3,15 272,15.1 C271.7,15.3 271.4,15.5 271.2,15.9 C271,16.3 270.9,17 270.9,18.1 L275.1,18.1 L275.1,18 Z M280.1,21.3 C279.7,22.6 278.8,23.7 277.5,24.5 C276.2,25.4 274.7,25.8 273,25.8 C272,25.8 271.1,25.6 270.1,25.3 C269.2,25 268.5,24.5 267.8,24 C267.1,23.4 266.6,22.8 266.2,22 C265.8,21.2 265.6,20.4 265.6,19.6 C265.6,18.8 265.8,17.9 266.2,17.2 C266.6,16.5 267.1,15.8 267.8,15.2 C268.5,14.6 269.3,14.2 270.1,13.9 C271,13.6 272,13.4 273,13.4 C274,13.4 275,13.6 275.9,13.9 C276.8,14.2 277.6,14.7 278.2,15.2 C278.9,15.8 279.4,16.5 279.8,17.2 C280.2,18 280.4,18.8 280.4,19.6 L271,19.6 L271,21.9 C271,22.8 271.3,23.5 271.8,23.9 C272,24.1 272.2,24.2 272.5,24.3 C272.7,24.4 272.9,24.4 273.1,24.4 C273.3,24.4 273.5,24.4 273.7,24.3 C274,24.2 274.2,24.1 274.4,23.9 C274.9,23.5 275.1,22.8 275.1,21.9 L275.1,21.3 L280.1,21.3 Z" fill="#FA0F0C" mask="url(#mask-2)"></path>
            <path d="M10.8002,52 L10.8002,74.5 C10.8002,75.3 11.0002,75.9 11.4002,76.4 C11.8002,76.9 12.4002,77.1 13.1002,77.1 L36.5002,77.1 L36.5002,85.5 L10.9002,85.5 C7.5002,85.5 4.8002,84.5 2.9002,82.5 C1.0002,80.5 0.0002,77.9 0.0002,74.5 L0.0002,52 L10.8002,52 Z" fill="#333333" mask="url(#mask-2)"></path>
            <path d="M70.9999,68.5 L70.9999,63 C70.9999,62.2 70.7999,61.6 70.3999,61.1 C69.9999,60.6 69.3999,60.4 68.6999,60.4 L54.6999,60.4 C54.0999,60.4 53.5999,60.6 53.1999,61.1 C52.7999,61.6 52.5999,62.2 52.5999,63 L52.5999,68.6 L70.9999,68.6 L70.9999,68.5 Z M41.8999,63 C41.8999,59.6 42.8999,56.9 44.7999,55 C46.6999,53 49.3999,52 52.7999,52 L70.8999,52 C74.2999,52 76.9999,53 78.8999,55 C80.7999,57 81.7999,59.6 81.7999,63 L81.7999,85.5 L70.9999,85.5 L70.9999,77 L52.5999,77 L52.5999,85.5 L41.8999,85.5 L41.8999,63 Z" fill="#333333" mask="url(#mask-2)"></path>
            <path d="M98.1,71.9004 C94.7,71.9004 92,70.9004 90.1,68.9004 C88.2,66.9004 87.2,64.6004 87.2,61.7994 C87.2,59.2004 88.2,56.9004 90.1,54.9004 C92,52.9004 94.7,51.9004 98.1,51.9004 L125.8,51.9004 L125.8,60.2994 L100.3,60.2994 C99.6,60.2994 99,60.5004 98.6,61.0004 C98.2,61.5004 98,62.1004 98,62.9004 C98,63.7004 98.2,64.2994 98.6,64.7994 C99,65.2994 99.6,65.5004 100.3,65.5004 L116,65.5004 C119.4,65.5004 122.1,66.5004 124,68.4004 C125.9,70.4004 126.9,72.7004 126.9,75.4004 C126.9,78.0994 125.9,80.4004 124,82.4004 C122.1,84.4004 119.4,85.4004 116,85.4004 L87.3,85.4004 L87.3,77.0004 L113.8,77.0004 C114.5,77.0004 115.1,76.7994 115.5,76.2994 C115.9,75.7994 116.1,75.2004 116.1,74.4004 C116.1,73.5994 115.9,73.0004 115.5,72.5004 C115.1,72.0004 114.5,71.7994 113.8,71.7994 L98.1,71.7994 L98.1,71.9004 Z" fill="#333333" mask="url(#mask-2)"></path>
            <path d="M170.9999,52 L170.9999,60.4 L158.7999,60.4 C158.1999,60.4 157.6999,60.6 157.2999,61.1 C156.8999,61.6 156.6999,62.2 156.6999,63 L156.6999,85.5 L145.8999,85.5 L145.8999,63 C145.8999,62.2 145.6999,61.6 145.2999,61.1 C144.8999,60.6 144.3999,60.4 143.7999,60.4 L131.5999,60.4 L131.5999,52 L170.9999,52 Z" fill="#333333" mask="url(#mask-2)"></path>
            <path d="M222.7001,63 C222.7001,62.2 222.5001,61.6 222.1001,61.1 C221.7001,60.6 221.1001,60.4 220.4001,60.4 L205.8001,60.4 C205.2001,60.4 204.7001,60.6 204.3001,61.1 C203.9001,61.6 203.7001,62.2 203.7001,63 L203.7001,66 C203.7001,66.8 203.9001,67.4 204.3001,67.9 C204.7001,68.4 205.2001,68.6 205.8001,68.6 L220.4001,68.6 C221.1001,68.6 221.7001,68.4 222.1001,67.9 C222.5001,67.4 222.7001,66.8 222.7001,66 L222.7001,63 Z M205.8001,76.9 C205.2001,76.9 204.7001,77.1 204.3001,77.6 C203.9001,78.1 203.7001,78.7 203.7001,79.5 L203.7001,85.4 L192.9001,85.4 L192.9001,52 L222.6001,52 C226.0001,52 228.7001,53 230.6001,55 C232.5001,57 233.5001,59.6 233.5001,63 L233.5001,66 C233.5001,69.4 232.5001,72.1 230.6001,74 C228.7001,75.9 226.1001,76.9 222.7001,76.9 L205.8001,76.9 Z" fill="#333333" mask="url(#mask-2)"></path>
            <path d="M249.6996,52 L249.6996,74.5 C249.6996,75.3 249.8996,75.9 250.3006,76.4 C250.6996,76.9 251.3006,77.1 252.0006,77.1 L268.3996,77.1 L268.3996,85.5 L249.8006,85.5 C246.3996,85.5 243.6996,84.5 241.8006,82.5 C239.8996,80.5 238.8996,77.9 238.8996,74.5 L238.8996,52 L249.6996,52 Z" fill="#333333" mask="url(#mask-2)"></path>
            <path d="M302.3998,71.9004 L286.6998,71.9004 C286.0008,71.9004 285.3998,72.0994 285.0008,72.5994 C284.5998,73.0994 284.3998,73.7004 284.3998,74.5004 C284.3998,75.2994 284.5998,75.9004 285.0008,76.4004 C285.3998,76.9004 286.0008,77.0994 286.6998,77.0994 L302.3998,77.0994 C303.0998,77.0994 303.6998,76.9004 304.0998,76.4004 C304.5008,75.9004 304.6998,75.2994 304.6998,74.5004 C304.6998,73.7004 304.5008,73.0994 304.0998,72.5994 C303.6998,72.0994 303.0998,71.9004 302.3998,71.9004 Z M315.5008,85.4004 L283.5998,85.4004 C280.5008,85.4004 278.0998,84.5994 276.2998,82.9004 C274.5008,81.2004 273.6998,78.7994 273.6998,75.4004 C273.6998,72.0994 274.5998,69.5994 276.2998,67.9004 C278.0998,66.2004 280.5008,65.4004 283.5998,65.4004 L302.3998,65.4004 C303.0998,65.4004 303.6998,65.2004 304.0998,64.7004 C304.5008,64.2004 304.6998,63.6004 304.6998,62.7994 C304.6998,62.0004 304.5008,61.4004 304.0998,60.9004 C303.6998,60.4004 303.0998,60.2004 302.3998,60.2004 L275.1998,60.2004 L275.1998,52.0004 L304.6998,52.0004 C308.0998,52.0004 310.6998,53.0004 312.5998,54.9004 C314.5008,56.9004 315.5008,59.6004 315.5008,62.9004 L315.5008,85.4004 Z" fill="#333333" mask="url(#mask-2)"></path>
            <path d="M335.5004,75.2998 L331.8004,75.2998 C328.3994,75.2998 325.6994,74.2998 323.8004,72.2998 C321.8994,70.2998 320.8994,67.6998 320.8994,64.2998 L320.8994,51.9998 L331.6994,51.9998 L331.6994,64.3998 C331.6994,65.1998 331.8994,65.7998 332.3004,66.2998 C332.6994,66.7998 333.3004,66.9998 334.0004,66.9998 L347.8004,66.9998 C348.5004,66.9998 349.1004,66.7998 349.5004,66.2998 C349.8994,65.7998 350.1004,65.1998 350.1004,64.3998 L350.1004,51.9998 L360.8994,51.9998 L360.8994,64.3998 C360.8994,67.7998 359.8994,70.4998 358.0004,72.4008 C356.1004,74.4008 353.3994,75.4008 350.0004,75.4008 L346.3004,75.4008 L346.3004,85.4998 L335.5004,85.4998 L335.5004,75.2998 Z" fill="#333333" mask="url(#mask-2)"></path>
            <path d="M400.6996,65.5 L400.6996,71.8 L379.3996,71.8 C378.6996,71.8 378.0996,72 377.6996,72.5 C377.3006,73 377.0996,73.6 377.0996,74.4 C377.0996,75.2 377.3006,75.8 377.6996,76.3 C378.0996,76.8 378.6996,77 379.3996,77 L402.5006,77 L402.5006,85.4 L377.1996,85.4 C373.8006,85.4 371.0996,84.4 369.1996,82.4 C367.3006,80.4 366.3006,77.8 366.3006,74.4 L366.3006,52 L402.5006,52 L402.5006,60.4 L379.3996,60.4 C378.6996,60.4 378.0996,60.6 377.6996,61.1 C377.3006,61.6 377.0996,62.2 377.0996,63 C377.0996,63.8 377.3006,64.4 377.6996,64.9 C378.0996,65.4 378.6996,65.6 379.3996,65.6 L400.6996,65.6 L400.6996,65.5 Z" fill="#333333" mask="url(#mask-2)"></path>
            <path d="M441.3998,62.8999 C441.3998,62.0999 441.1998,61.4999 440.7998,60.9999 C440.3998,60.4999 439.7998,60.2999 439.0998,60.2999 L421.0998,60.2999 C420.5008,60.2999 420.0008,60.4999 419.5998,60.9999 C419.1998,61.4999 419.0008,62.0999 419.0008,62.8999 L419.0008,74.3999 C419.0008,75.1999 419.1998,75.7999 419.5998,76.2999 C420.0008,76.7999 420.5008,76.9999 421.0998,76.9999 L439.0998,76.9999 C439.7998,76.9999 440.3998,76.7999 440.7998,76.2999 C441.1998,75.7999 441.3998,75.1999 441.3998,74.3999 L441.3998,62.8999 Z M441.3998,51.9999 C444.7998,51.9999 447.3998,52.9999 449.2998,54.8999 C451.1998,56.8999 452.1998,59.5999 452.1998,62.8999 L452.1998,74.3999 C452.1998,77.7999 451.1998,80.4999 449.2998,82.3999 C447.3998,84.3999 444.6998,85.3999 441.2998,85.3999 L408.1998,85.3999 L408.1998,51.9999 L441.3998,51.9999 Z" fill="#333333" mask="url(#mask-2)"></path>
            <path d="M117.3002,130 C113.9002,130 111.2002,129 109.3002,127 C107.4002,125 106.4002,122.4 106.4002,119 L106.4002,107.5 C106.4002,104.1 107.4002,101.4 109.3002,99.5 C111.2002,97.6 113.8002,96.6 117.2002,96.6 L149.1002,96.6 L149.1002,105 L119.5002,105 C118.8002,105 118.2002,105.2 117.8002,105.7 C117.4002,106.2 117.2002,106.8 117.2002,107.6 L117.2002,119 C117.2002,119.8 117.4002,120.4 117.8002,120.9 C118.2002,121.4 118.8002,121.6 119.5002,121.6 L137.6002,121.6 C138.3002,121.6 138.9002,121.4 139.3002,120.9 C139.7002,120.4 139.9002,119.8 139.9002,119 C139.9002,118.2 139.7002,117.6 139.3002,117.1 C138.9002,116.6 138.3002,116.4 137.6002,116.4 L125.7002,116.4 L125.7002,110.1 L140.7002,110.1 C143.8002,110.1 146.2002,110.9 148.0002,112.6 C149.8002,114.3 150.6002,116.7 150.6002,120.1 C150.6002,123.4 149.7002,125.9 148.0002,127.6 C146.2002,129.3 143.8002,130.1 140.7002,130.1 L117.3002,130.1 L117.3002,130 Z" fill="#333333" mask="url(#mask-2)"></path>
            <path d="M185.1,113.0996 L185.1,107.4996 C185.1,106.7006 184.9,106.0996 184.5,105.5996 C184.1,105.0996 183.5,104.9006 182.8,104.9006 L168.8,104.9006 C168.2,104.9006 167.7,105.0996 167.3,105.5996 C166.9,106.0996 166.7,106.7006 166.7,107.4996 L166.7,113.0996 L185.1,113.0996 Z M156,107.4996 C156,104.0996 157,101.4006 158.9,99.4996 C160.8,97.4996 163.5,96.4996 166.9,96.4996 L185,96.4996 C188.4,96.4996 191.1,97.4996 193,99.4996 C194.9,101.4996 195.9,104.0996 195.9,107.4996 L195.9,129.9996 L185.1,129.9996 L185.1,121.4996 L166.7,121.4996 L166.7,129.9996 L155.9,129.9996 L155.9,107.4996 L156,107.4996 Z" fill="#333333" mask="url(#mask-2)"></path>
            <path d="M248.1,96.5996 C251.5,96.5996 254.2,97.5996 256.1,99.5996 C258,101.5996 259,104.2006 259,107.5996 L259,129.9996 L248.2,129.9996 L248.2,107.4996 C248.2,106.7006 248,106.0996 247.6,105.5996 C247.2,105.0996 246.6,104.9006 245.9,104.9006 L237.9,104.9006 C237.3,104.9006 236.8,105.0996 236.4,105.5996 C236,106.0996 235.8,106.7006 235.8,107.4996 L235.8,129.9996 L225,129.9996 L225,107.4996 C225,106.7006 224.8,106.0996 224.4,105.5996 C224,105.0996 223.5,104.9006 222.9,104.9006 L214.6,104.9006 C214,104.9006 213.5,105.0996 213.1,105.5996 C212.7,106.0996 212.5,106.7006 212.5,107.4996 L212.5,129.9996 L201.7,129.9996 L201.7,96.5996 L248.1,96.5996 Z" fill="#333333" mask="url(#mask-2)"></path>
            <path d="M299.0004,110.0996 L299.0004,116.4006 L277.6994,116.4006 C277.0004,116.4006 276.3994,116.5996 276.0004,117.0996 C275.6004,117.5996 275.3994,118.2006 275.3994,118.9996 C275.3994,119.7996 275.6004,120.4006 276.0004,120.9006 C276.3994,121.4006 277.0004,121.5996 277.6994,121.5996 L300.8004,121.5996 L300.8004,129.9996 L275.5004,129.9996 C272.1004,129.9996 269.3994,128.9996 267.5004,126.9996 C265.6004,124.9996 264.6004,122.4006 264.6004,118.9996 L264.6004,96.5996 L300.8004,96.5996 L300.8004,104.9996 L277.6994,104.9996 C277.0004,104.9996 276.3994,105.2006 276.0004,105.7006 C275.6004,106.2006 275.3994,106.7996 275.3994,107.5996 C275.3994,108.4006 275.6004,108.9996 276.0004,109.4996 C276.3994,109.9996 277.0004,110.2006 277.6994,110.2006 L299.0004,110.2006 L299.0004,110.0996 Z" fill="#333333" mask="url(#mask-2)"></path>
            <path d="M317.1,116.5 C313.7,116.5 311,115.5 309.1,113.5 C307.2,111.5 306.2,109.2 306.2,106.4 C306.2,103.8 307.2,101.5 309.1,99.5 C311,97.5 313.7,96.5 317.1,96.5 L344.8,96.5 L344.8,104.9 L319.3,104.9 C318.6,104.9 318,105.1 317.6,105.6 C317.2,106.1 317,106.7 317,107.5 C317,108.3 317.2,108.9 317.6,109.4 C318,109.9 318.6,110.1 319.3,110.1 L335,110.1 C338.4,110.1 341.1,111.1 343,113.1 C344.9,115.1 345.9,117.4 345.9,120.1 C345.9,122.8 344.9,125.1 343,127.1 C341.1,129.1 338.4,130.1 335,130.1 L306.3,130.1 L306.3,121.7 L332.8,121.7 C333.5,121.7 334.1,121.5 334.5,121 C334.9,120.5 335.1,119.9 335.1,119.1 C335.1,118.3 334.9,117.7 334.5,117.2 C334.1,116.7 333.5,116.5 332.8,116.5 L317.1,116.5 Z" fill="#333333" mask="url(#mask-2)"></path>
        </g>
    </g>
</svg>